<svg width="473" height="565" xmlns="http://www.w3.org/2000/svg" xmlns:xlink="http://www.w3.org/1999/xlink" overflow="hidden"><defs><clipPath id="clip0"><path d="M405 60 878 60 878 625 405 625Z" fill-rule="evenodd" clip-rule="evenodd"/></clipPath><clipPath id="clip1"><path d="M406 60 877 60 877 625 406 625Z" fill-rule="evenodd" clip-rule="evenodd"/></clipPath><clipPath id="clip2"><path d="M406 60 877 60 877 625 406 625Z" fill-rule="evenodd" clip-rule="evenodd"/></clipPath></defs><g clip-path="url(#clip0)" transform="translate(-405 -60)"><g clip-path="url(#clip1)"><g clip-path="url(#clip2)"><path d="M385.641 593.9C385.641 608.758 373.596 620.803 358.738 620.803 343.88 620.803 331.835 608.758 331.835 593.9 331.835 579.042 343.88 566.996 358.738 566.996 373.596 566.996 385.641 579.042 385.641 593.9Z" fill="#E6E6E6" transform="matrix(1 0 -0 1.00234 280.525 -0.500689)"/><path d="M366.007 166.517C363.984 166.442 362.035 166.367 360.012 166.367 358.064 166.367 356.115 166.442 354.092 166.517 256.595 170.414 183.678 275.48 226.694 363.085L228.717 367.131C251.574 406.475 281.475 395.983 281.475 440.797L281.475 472.497 439.299 472.497 439.299 440.423C439.299 395.833 466.277 404.901 488.459 367.356L490.782 362.56C532.974 274.88 463.204 170.414 366.007 166.517Z" fill="#FBB03B" transform="matrix(1 0 -0 1.00234 280.525 -0.500689)"/><path d="M366.007 166.517C363.984 166.442 362.035 166.367 360.012 166.367 358.064 166.367 356.115 166.442 354.092 166.517 311.226 168.24 273.156 189.448 247.602 220.174 271.433 200.24 301.634 187.275 334.682 185.926 336.631 185.851 338.579 185.776 340.603 185.776 342.626 185.776 344.574 185.851 346.598 185.926 443.795 189.898 513.639 294.29 471.448 381.969L469.125 386.766C467.401 389.688 465.677 392.311 463.879 394.634 471.673 388.489 480.441 380.995 488.534 367.356L490.857 362.56C532.974 274.88 463.204 170.414 366.007 166.517Z" fill="#FFC06C" transform="matrix(1 0 -0 1.00234 280.525 -0.500689)"/><path d="M374.85 461.181C372.002 436.001 369.23 410.746 370.204 385.417 371.178 360.087 376.274 334.607 388.339 312.35 391.412 306.73 395.009 301.184 400.255 297.437 409.023 291.217 421.838 291.367 430.456 297.887 439.074 304.406 442.671 316.697 439.074 326.814 435.477 336.781 426.184 343.525 416.517 347.947 397.332 356.79 315.872 356.79 296.688 347.947 287.095 343.525 277.728 336.781 274.131 326.814 270.459 316.697 274.131 304.406 282.749 297.887 291.367 291.367 304.182 291.217 312.95 297.437 318.195 301.184 321.793 306.73 324.865 312.35 336.93 334.607 342.026 360.087 343.001 385.417 343.975 410.746 341.202 436.001 338.354 461.181" stroke="#FFFFFF" stroke-width="11.1929" stroke-miterlimit="10" fill="none" transform="matrix(1 0 -0 1.00234 280.525 -0.500689)"/><path d="M417.341 593.9 304.406 593.9C295.339 593.9 281.25 586.856 281.25 578.237L281.25 578.237 281.25 464.553C281.25 458.483 286.121 453.612 292.191 453.612L429.556 453.612C435.626 453.612 440.498 458.483 440.498 464.553L440.498 577.788 440.498 578.237C440.498 586.856 426.334 593.9 417.341 593.9Z" fill="#CCCCCC" transform="matrix(1 0 -0 1.00234 280.525 -0.500689)"/><path d="M440.797 472.497 271.733 492.881C264.538 493.78 258.019 488.609 257.119 481.415L256.82 478.867C255.92 471.673 261.091 465.153 268.285 464.254L437.35 443.87C444.544 442.971 451.064 448.142 451.963 455.336L452.263 457.884C453.162 465.078 447.992 471.598 440.797 472.497Z" fill="#E6E6E6" transform="matrix(1 0 -0 1.00234 280.525 -0.500689)"/><path d="M446.568 520.009 277.503 540.393C270.309 541.292 263.789 536.121 262.89 528.927L262.59 526.379C261.691 519.185 266.862 512.665 274.056 511.766L443.121 491.382C450.315 490.483 456.835 495.654 457.734 502.848L458.034 505.396C458.858 512.59 453.762 519.185 446.568 520.009Z" fill="#E6E6E6" transform="matrix(1 0 -0 1.00234 280.525 -0.500689)"/><path d="M452.263 567.596 283.198 587.98C276.004 588.879 269.484 583.708 268.585 576.514L268.285 573.966C267.386 566.772 272.557 560.252 279.751 559.353L448.816 538.969C456.01 538.07 462.53 543.24 463.429 550.435L463.729 552.983C464.628 560.177 459.457 566.697 452.263 567.596Z" fill="#E6E6E6" transform="matrix(1 0 -0 1.00234 280.525 -0.500689)"/><path d="M281.25 539.943 281.25 549.011 440.498 529.826 440.498 520.758Z" fill="#B3B3B3" transform="matrix(1 0 -0 1.00234 280.525 -0.500689)"/><path d="M439.523 472.647 281.25 491.757 281.25 500.824 439.523 481.715C439.823 481.64 440.123 481.565 440.423 481.49L440.423 472.422C440.123 472.497 439.898 472.572 439.523 472.647Z" fill="#B3B3B3" transform="matrix(1 0 -0 1.00234 280.525 -0.500689)"/><path d="M286.871 587.53C291.817 591.352 299.011 593.9 304.406 593.9L309.278 593.9 440.498 578.088 440.498 577.788 440.498 569.02 286.871 587.53Z" fill="#B3B3B3" transform="matrix(1 0 -0 1.00234 280.525 -0.500689)"/><path d="M181.505 453.537 223.321 417.866" stroke="#FBB03B" stroke-width="18.6548" stroke-miterlimit="10" fill="none" transform="matrix(1 0 -0 1.00234 280.525 -0.500689)"/><path d="M181.505 453.537 223.321 417.866" stroke="#FBB03B" stroke-width="18.6548" stroke-miterlimit="10" fill="none" transform="matrix(1 0 -0 1.00234 280.525 -0.500689)"/><path d="M133.318 361.736 186.376 347.647" stroke="#FBB03B" stroke-width="18.6548" stroke-miterlimit="10" fill="none" transform="matrix(1 0 -0 1.00234 280.525 -0.500689)"/><path d="M133.318 361.736 186.376 347.647" stroke="#FBB03B" stroke-width="18.6548" stroke-miterlimit="10" fill="none" transform="matrix(1 0 -0 1.00234 280.525 -0.500689)"/><path d="M129.571 258.168 183.528 268.285" stroke="#FBB03B" stroke-width="18.6548" stroke-miterlimit="10" fill="none" transform="matrix(1 0 -0 1.00234 280.525 -0.500689)"/><path d="M129.571 258.168 183.528 268.285" stroke="#FBB03B" stroke-width="18.6548" stroke-miterlimit="10" fill="none" transform="matrix(1 0 -0 1.00234 280.525 -0.500689)"/><path d="M170.863 162.995 215.078 195.519" stroke="#FBB03B" stroke-width="18.6548" stroke-miterlimit="10" fill="none" transform="matrix(1 0 -0 1.00234 280.525 -0.500689)"/><path d="M170.863 162.995 215.078 195.519" stroke="#FBB03B" stroke-width="18.6548" stroke-miterlimit="10" fill="none" transform="matrix(1 0 -0 1.00234 280.525 -0.500689)"/><path d="M249.101 95.0989 275.03 143.435" stroke="#FBB03B" stroke-width="18.6548" stroke-miterlimit="10" fill="none" transform="matrix(1 0 -0 1.00234 280.525 -0.500689)"/><path d="M249.101 95.0989 275.03 143.435" stroke="#FBB03B" stroke-width="18.6548" stroke-miterlimit="10" fill="none" transform="matrix(1 0 -0 1.00234 280.525 -0.500689)"/><path d="M349.071 67.5959 351.544 122.452" stroke="#FBB03B" stroke-width="18.6548" stroke-miterlimit="10" fill="none" transform="matrix(1 0 -0 1.00234 280.525 -0.500689)"/><path d="M349.071 67.5959 351.544 122.452" stroke="#FBB03B" stroke-width="18.6548" stroke-miterlimit="10" fill="none" transform="matrix(1 0 -0 1.00234 280.525 -0.500689)"/><path d="M451.064 85.8813 429.706 136.391" stroke="#FBB03B" stroke-width="18.6548" stroke-miterlimit="10" fill="none" transform="matrix(1 0 -0 1.00234 280.525 -0.500689)"/><path d="M451.064 85.8813 429.706 136.391" stroke="#FBB03B" stroke-width="18.6548" stroke-miterlimit="10" fill="none" transform="matrix(1 0 -0 1.00234 280.525 -0.500689)"/><path d="M535.147 146.433 494.08 182.854" stroke="#FBB03B" stroke-width="18.6548" stroke-miterlimit="10" fill="none" transform="matrix(1 0 -0 1.00234 280.525 -0.500689)"/><path d="M535.147 146.433 494.08 182.854" stroke="#FBB03B" stroke-width="18.6548" stroke-miterlimit="10" fill="none" transform="matrix(1 0 -0 1.00234 280.525 -0.500689)"/><path d="M584.982 237.41 532.149 252.398" stroke="#FBB03B" stroke-width="18.6548" stroke-miterlimit="10" fill="none" transform="matrix(1 0 -0 1.00234 280.525 -0.500689)"/><path d="M584.982 237.41 532.149 252.398" stroke="#FBB03B" stroke-width="18.6548" stroke-miterlimit="10" fill="none" transform="matrix(1 0 -0 1.00234 280.525 -0.500689)"/><path d="M589.029 342.626 535.597 330.036" stroke="#FBB03B" stroke-width="18.6548" stroke-miterlimit="10" fill="none" transform="matrix(1 0 -0 1.00234 280.525 -0.500689)"/><path d="M589.029 342.626 535.597 330.036" stroke="#FBB03B" stroke-width="18.6548" stroke-miterlimit="10" fill="none" transform="matrix(1 0 -0 1.00234 280.525 -0.500689)"/><path d="M553.282 434.427 504.946 408.423" stroke="#FBB03B" stroke-width="18.6548" stroke-miterlimit="10" fill="none" transform="matrix(1 0 -0 1.00234 280.525 -0.500689)"/><path d="M553.282 434.427 504.946 408.423" stroke="#FBB03B" stroke-width="18.6548" stroke-miterlimit="10" fill="none" transform="matrix(1 0 -0 1.00234 280.525 -0.500689)"/></g></g></g></svg>