<?xml version="1.0" encoding="iso-8859-1"?>
<!-- Generator: Adobe Illustrator 19.0.0, SVG Export Plug-In . SVG Version: 6.00 Build 0)  -->
<svg version="1.1" id="Layer_1" xmlns="http://www.w3.org/2000/svg" xmlns:xlink="http://www.w3.org/1999/xlink" x="0px" y="0px"
	 viewBox="0 0 511.998 511.998" style="enable-background:new 0 0 511.998 511.998;" xml:space="preserve">
<path style="fill:#E4EAEA;" d="M501.287,36.904v277.65c0,15.328-12.424,27.752-27.752,27.752H38.468
	c-15.328,0-27.752-12.424-27.752-27.752V36.904c0-15.328,12.424-27.752,27.752-27.752h435.067
	C488.863,9.153,501.287,21.576,501.287,36.904z"/>
<g>
	<path style="fill:#F23488;" d="M501.287,36.904v29.607H10.717V36.904c0-15.328,12.424-27.752,27.752-27.752h435.067
		C488.863,9.153,501.287,21.576,501.287,36.904z"/>
	<polyline style="fill:#F23488;" points="180.704,373.999 138.357,470.47 185.525,463.197 212.105,502.847 251.45,413.21 
		260.542,413.21 299.887,502.847 326.467,463.197 373.635,470.47 331.287,373.999 	"/>
</g>
<path style="fill:#EA9B22;" d="M340.286,315.053c0-16.659,8.903-35.863,1.12-49.316c-8.03-13.878-29.386-15.667-43.264-23.697
	c-13.452-7.784-25.485-25.595-42.145-25.595s-28.692,17.813-42.145,25.595c-13.878,8.03-35.234,9.819-43.264,23.697
	c-7.784,13.452,1.12,32.658,1.12,49.316c0,16.659-8.903,35.863-1.12,49.316c8.03,13.878,29.386,15.667,43.264,23.697
	c13.452,7.784,25.485,25.595,42.145,25.595s28.692-17.813,42.145-25.595c13.878-8.03,35.234-9.819,43.264-23.697
	C349.189,350.917,340.286,331.711,340.286,315.053z"/>
<circle style="fill:#F23488;" cx="255.999" cy="315.054" r="46.484"/>
<path d="M146.666,342.306c0-5.055-4.098-9.153-9.153-9.153H38.467c-10.255,0-18.599-8.344-18.599-18.599v-126.62
	c0-5.055-4.098-9.153-9.153-9.153s-9.153,4.098-9.153,9.153v126.62c0,20.349,16.556,36.904,36.904,36.904h99.046
	C142.568,351.458,146.666,347.36,146.666,342.306z"/>
<path d="M473.535,0H38.468C18.118,0,1.563,16.556,1.563,36.904V66.44c0,0.024-0.004,0.048-0.004,0.071s0.004,0.048,0.004,0.071
	v90.843c0,5.055,4.098,9.153,9.153,9.153s9.153-4.098,9.153-9.153V75.664h322.886c5.055,0,9.153-4.098,9.153-9.153
	s-4.098-9.153-9.153-9.153H19.868V36.904c0-10.255,8.344-18.599,18.599-18.599h435.067c10.255,0,18.599,8.344,18.599,18.599v20.454
	H373.264c-5.055,0-9.153,4.098-9.153,9.153s4.098,9.153,9.153,9.153h118.869v238.89c0,10.255-8.343,18.599-18.599,18.599h-99.059
	c-5.055,0-9.153,4.098-9.153,9.153c0,5.055,4.098,9.153,9.153,9.153h99.059c20.349,0,36.904-16.556,36.904-36.904V36.904
	C510.439,16.556,493.884,0,473.535,0z"/>
<path d="M37.908,33.803c-5.888,5.888-1.063,16.292,7.237,15.589c3.848-0.326,7.156-3.128,8.111-6.868
	c0.94-3.682-0.577-7.665-3.711-9.806C45.957,30.264,40.984,30.728,37.908,33.803z"/>
<path d="M104.627,31.826c-3.736-1.58-8.245-0.372-10.719,2.828c-2.242,2.898-2.53,6.948-0.727,10.135
	c1.96,3.467,6.069,5.279,9.957,4.403c3.594-0.81,6.409-3.772,7.025-7.41C110.854,37.685,108.537,33.354,104.627,31.826z"/>
<path d="M70.053,31.302c-3.767,0.786-6.69,3.833-7.26,7.649c-0.55,3.694,1.311,7.492,4.578,9.308
	c3.426,1.904,7.784,1.392,10.669-1.256c2.798-2.568,3.714-6.724,2.256-10.23C78.647,32.805,74.278,30.452,70.053,31.302z"/>
<path d="M342.627,377.06c2.576-2.281,4.864-4.933,6.701-8.108c6.73-11.632,4.296-25.325,2.148-37.406
	c-1.047-5.894-2.037-11.462-2.037-16.493c0-5.032,0.99-10.599,2.037-16.493c2.148-12.082,4.581-25.776-2.148-37.407
	c-6.935-11.987-20.19-16.713-31.886-20.883c-5.471-1.951-10.638-3.793-14.717-6.153c-3.833-2.217-7.842-5.678-12.085-9.342
	c-9.492-8.195-20.251-17.483-34.643-17.483c-14.393,0-25.151,9.288-34.643,17.483c-4.243,3.664-8.251,7.125-12.084,9.342
	c-4.079,2.359-9.246,4.202-14.717,6.153c-11.695,4.17-24.951,8.897-31.886,20.882c-6.73,11.633-4.297,25.325-2.148,37.407
	c1.047,5.894,2.037,11.463,2.037,16.494c0,5.032-0.99,10.599-2.038,16.493c-2.148,12.082-4.581,25.775,2.148,37.406
	c1.835,3.173,4.122,5.825,6.699,8.106l-39.39,89.734c-1.342,3.058-0.913,6.606,1.123,9.255c2.036,2.648,5.353,3.981,8.654,3.47
	l41.414-6.386l23.337,34.813c1.709,2.548,4.568,4.057,7.601,4.057c0.268,0,0.539-0.012,0.81-0.035
	c3.328-0.295,6.23-2.38,7.572-5.438l35.51-80.899l35.51,80.899c1.342,3.058,4.246,5.143,7.573,5.438
	c0.271,0.024,0.541,0.035,0.81,0.035c3.033,0,5.892-1.507,7.601-4.057l23.337-34.813l41.413,6.386
	c3.305,0.509,6.618-0.821,8.653-3.47c2.036-2.649,2.466-6.197,1.123-9.255L342.627,377.06z M178.543,295.356
	c-1.755-9.869-3.412-19.192-0.031-25.036c3.568-6.169,12.614-9.393,22.189-12.808c6.003-2.141,12.211-4.354,17.736-7.551
	c5.325-3.08,10.182-7.275,14.88-11.331c7.763-6.702,15.096-13.034,22.68-13.034s14.917,6.331,22.68,13.034
	c4.698,4.055,9.557,8.25,14.881,11.331c5.523,3.196,11.732,5.41,17.736,7.551c9.575,3.413,18.621,6.639,22.189,12.808
	c3.382,5.844,1.724,15.167-0.03,25.036c-1.141,6.417-2.32,13.051-2.32,19.697c0,6.646,1.179,13.28,2.32,19.697
	c1.755,9.869,3.411,19.192,0.03,25.036c-3.57,6.169-12.614,9.393-22.19,12.808c-6.003,2.141-12.211,4.354-17.735,7.551
	c-5.325,3.08-10.183,7.275-14.881,11.331c-7.763,6.704-15.096,13.034-22.68,13.034s-14.917-6.331-22.68-13.034
	c-4.698-4.057-9.557-8.25-14.881-11.331c-5.523-3.196-11.732-5.41-17.736-7.551c-9.575-3.413-18.621-6.639-22.189-12.808
	c-3.382-5.844-1.724-15.166,0.031-25.035c1.141-6.417,2.32-13.052,2.32-19.697S179.683,301.773,178.543,295.356z M210.424,483.903
	L193.128,458.1c-1.978-2.951-5.486-4.491-8.998-3.949l-30.691,4.733l31.837-72.527c3.106,1.274,6.245,2.397,9.277,3.478
	c5.471,1.951,10.638,3.793,14.717,6.153c3.834,2.219,7.842,5.678,12.085,9.343c5.383,4.648,11.176,9.643,17.807,13.101
	L210.424,483.903z M327.862,454.151c-3.511-0.539-7.02,0.997-8.998,3.949l-17.297,25.803l-28.738-65.469
	c6.632-3.457,12.426-8.454,17.81-13.103c4.243-3.664,8.252-7.125,12.085-9.342c4.079-2.359,9.246-4.202,14.717-6.153
	c3.033-1.081,6.169-2.204,9.275-3.477l31.835,72.525L327.862,454.151z"/>
<path d="M255.997,370.692c30.679,0,55.64-24.959,55.64-55.639c0-30.68-24.961-55.64-55.64-55.64s-55.639,24.959-55.639,55.64
	C200.358,345.732,225.318,370.692,255.997,370.692z M255.997,277.719c20.585,0,37.334,16.749,37.334,37.334
	s-16.749,37.333-37.334,37.333s-37.333-16.747-37.333-37.333C218.664,294.468,235.412,277.719,255.997,277.719z"/>
<path d="M61.967,163.285h165.965c5.055,0,9.153-4.098,9.153-9.153s-4.098-9.153-9.153-9.153H61.967
	c-5.055,0-9.153,4.098-9.153,9.153S56.912,163.285,61.967,163.285z"/>
<path d="M61.967,210.027h135.455c5.055,0,9.153-4.098,9.153-9.153s-4.098-9.153-9.153-9.153H61.967
	c-5.055,0-9.153,4.098-9.153,9.153S56.912,210.027,61.967,210.027z"/>
<path d="M61.967,256.768h83.096c5.055,0,9.153-4.098,9.153-9.153s-4.098-9.153-9.153-9.153H61.967c-5.055,0-9.153,4.098-9.153,9.153
	S56.912,256.768,61.967,256.768z"/>
<path d="M61.967,303.51h79.817c5.055,0,9.153-4.098,9.153-9.153c0-5.055-4.098-9.153-9.153-9.153H61.967
	c-5.055,0-9.153,4.098-9.153,9.153C52.814,299.411,56.912,303.51,61.967,303.51z"/>
<path d="M450.028,98.238H170.079c-5.055,0-9.153,4.098-9.153,9.153c0,5.055,4.098,9.153,9.153,9.153h279.949
	c5.055,0,9.153-4.098,9.153-9.153C459.181,102.337,455.084,98.238,450.028,98.238z"/>
<path d="M61.967,116.544h77.604c5.055,0,9.153-4.098,9.153-9.153c0-5.055-4.098-9.153-9.153-9.153H61.967
	c-5.055,0-9.153,4.098-9.153,9.153C52.814,112.446,56.912,116.544,61.967,116.544z"/>
<path d="M450.028,144.979H284.063c-5.055,0-9.153,4.098-9.153,9.153c0,5.055,4.098,9.153,9.153,9.153h165.965
	c5.055,0,9.153-4.098,9.153-9.153S455.084,144.979,450.028,144.979z"/>
<path d="M450.028,191.721h-29.172c-5.055,0-9.153,4.098-9.153,9.153s4.098,9.153,9.153,9.153h29.172
	c5.055,0,9.153-4.098,9.153-9.153S455.084,191.721,450.028,191.721z"/>
<path d="M399.501,200.874c0-5.055-4.098-9.153-9.153-9.153h-75.775c-5.055,0-9.153,4.098-9.153,9.153s4.098,9.153,9.153,9.153
	h75.775C395.403,210.027,399.501,205.929,399.501,200.874z"/>
<path d="M450.028,238.462h-83.096c-5.055,0-9.153,4.098-9.153,9.153s4.098,9.153,9.153,9.153h83.096
	c5.055,0,9.153-4.098,9.153-9.153S455.084,238.462,450.028,238.462z"/>
<path d="M450.028,285.204h-79.817c-5.055,0-9.153,4.098-9.153,9.153c0,5.055,4.098,9.153,9.153,9.153h79.817
	c5.055,0,9.153-4.098,9.153-9.153C459.181,289.302,455.084,285.204,450.028,285.204z"/>
<g>
</g>
<g>
</g>
<g>
</g>
<g>
</g>
<g>
</g>
<g>
</g>
<g>
</g>
<g>
</g>
<g>
</g>
<g>
</g>
<g>
</g>
<g>
</g>
<g>
</g>
<g>
</g>
<g>
</g>
</svg>
